<svg width="72" height="72" viewBox="0 0 72 72" fill="none" xmlns="http://www.w3.org/2000/svg">
<path fill-rule="evenodd" clip-rule="evenodd" d="M35.9986 43.9985C32.3901 43.9985 29.151 42.4108 26.9003 39.8875C24.9164 37.6558 23.7059 34.6964 23.7059 31.4499C23.7059 24.5209 29.2106 18.9064 35.9986 18.9064C40.4352 18.9064 44.3197 21.3023 46.4733 24.8961C46.4777 24.9012 46.482 24.905 46.482 24.9101C47.6278 26.8179 48.2862 29.0541 48.2862 31.4499C48.2862 38.379 42.7865 43.9985 35.9986 43.9985M63.0234 57.5215C59.7551 53.792 56.8753 49.4896 56.8678 33.6768C56.8827 33.3123 56.884 33.3003 56.884 32.9314C56.884 26.4752 54.6066 20.6231 50.9155 16.358C51.194 15.9929 51.48 15.5588 51.7635 15.0752C51.8002 15.0149 51.8325 14.9547 51.8642 14.8945C52.1981 14.3177 52.5276 13.6769 52.8341 12.9943C53.1362 12.3205 53.4104 11.6195 53.6442 10.9223C53.6715 10.8342 53.7039 10.7467 53.7262 10.658C53.868 10.2073 53.9911 9.75733 54.0924 9.32506C54.5593 7.27652 54.4717 5.52081 53.3103 5.02389C52.6507 4.74057 51.8549 5.53919 50.9304 6.71431C50.8987 6.75615 50.862 6.79798 50.8253 6.84425C50.7843 6.89559 50.7432 6.94693 50.7016 7.00207C50.0979 7.79182 49.4302 8.71658 48.7028 9.57098C48.6474 9.63627 48.5927 9.70092 48.538 9.7662C48.5057 9.80297 48.474 9.84036 48.4416 9.87776C47.6464 10.7835 46.7823 11.5891 45.8491 12.0562C42.9431 10.2993 39.6263 9.30351 36.1055 9.30351C32.4945 9.30351 29.0987 10.3506 26.1399 12.1931C25.0923 11.7577 24.1287 10.8792 23.2496 9.87776C23.2172 9.84036 23.1855 9.80297 23.1538 9.7662C23.0985 9.70092 23.0438 9.63627 22.9884 9.57098C22.261 8.71658 21.5933 7.79182 20.9896 7.00207C20.9486 6.94693 20.9069 6.89559 20.8659 6.84425C20.8292 6.79798 20.7931 6.75615 20.7608 6.71431C19.8363 5.53919 19.0405 4.74057 18.3815 5.02389C17.2195 5.52081 17.1325 7.27652 17.5987 9.32506C17.6995 9.75733 17.8232 10.2073 17.9649 10.658C17.9879 10.7467 18.0196 10.8342 18.047 10.9223C18.2808 11.6195 18.5556 12.3205 18.8571 12.9943C19.1636 13.6769 19.4931 14.3177 19.8276 14.8945C19.8593 14.9547 19.891 15.0149 19.9277 15.0752C20.2976 15.7065 20.6719 16.2528 21.0281 16.673C17.4949 20.9089 15.327 26.6324 15.327 32.9314C15.327 33.4334 15.3009 33.6115 15.3276 34.1059C15.2648 49.5891 12.2122 53.8237 8.97176 57.5215C6.6484 60.1728 8.62484 65.7403 13.4749 63.2557C23.2496 58.2485 25.5282 67.5423 35.9855 67.2324C46.4428 66.9224 48.4416 58.2485 58.5203 63.2557C63.3996 65.6807 65.3462 60.1728 63.0234 57.5215" fill="#4972F1"/>
<path fill-rule="evenodd" clip-rule="evenodd" d="M47.3491 29.7379C47.3491 33.2264 44.5218 36.0537 41.0329 36.0537C37.5447 36.0537 34.7168 33.2264 34.7168 29.7379C34.7168 26.2493 37.5447 23.4214 41.0329 23.4214C44.5218 23.4214 47.3491 26.2493 47.3491 29.7379" fill="#323541"/>
</svg>
